<svg width="12" height="12" viewBox="0 0 12 12" fill="none" xmlns="http://www.w3.org/2000/svg">
<path fill-rule="evenodd" clip-rule="evenodd" d="M2.0955 10.3955C2.0955 10.5281 2.14818 10.6553 2.24195 10.7491C2.33571 10.8428 2.46289 10.8955 2.5955 10.8955H9.404C9.53661 10.8955 9.66379 10.8428 9.75755 10.7491C9.85132 10.6553 9.904 10.5281 9.904 10.3955V9.7705H2.0955V10.3955ZM9.9805 4.7225L8.0555 5.7175L6.4385 3.23C6.39098 3.15685 6.32592 3.09673 6.24926 3.05511C6.17259 3.01349 6.08674 2.99169 5.9995 2.99169C5.91226 2.99169 5.82641 3.01349 5.74974 3.05511C5.67307 3.09673 5.60802 3.15685 5.5605 3.23L3.9435 5.7175L2.0185 4.7225C1.93078 4.67723 1.83206 4.65767 1.7337 4.66605C1.63535 4.67443 1.54136 4.71043 1.46257 4.76989C1.38377 4.82935 1.32338 4.90986 1.28834 5.00214C1.25329 5.09442 1.24503 5.19473 1.2645 5.2915L2.0195 9.0205H9.9795L10.7345 5.2915C10.822 4.8605 10.371 4.5205 9.9805 4.7225ZM5.9995 2.57C6.20769 2.57 6.40736 2.48729 6.55458 2.34008C6.70179 2.19286 6.7845 1.9932 6.7845 1.785C6.7845 1.57681 6.70179 1.37714 6.55458 1.22992C6.40736 1.08271 6.20769 1 5.9995 1C5.79131 1 5.59164 1.08271 5.44442 1.22992C5.2972 1.37714 5.2145 1.57681 5.2145 1.785C5.2145 1.9932 5.2972 2.19286 5.44442 2.34008C5.59164 2.48729 5.79131 2.57 5.9995 2.57ZM11.2145 2.992C11.0063 2.992 10.8066 3.07471 10.6594 3.22192C10.5122 3.36914 10.4295 3.5688 10.4295 3.777C10.4295 3.98519 10.5122 4.18486 10.6594 4.33208C10.8066 4.47929 11.0063 4.562 11.2145 4.562C11.4227 4.562 11.6224 4.47929 11.7696 4.33208C11.9168 4.18486 11.9995 3.98519 11.9995 3.777C11.9995 3.5688 11.9168 3.36914 11.7696 3.22192C11.6224 3.07471 11.4227 2.992 11.2145 2.992ZM1.57 3.777C1.57 3.5688 1.48729 3.36914 1.34008 3.22192C1.19286 3.07471 0.993195 2.992 0.785 2.992C0.576805 2.992 0.377137 3.07471 0.229921 3.22192C0.0827051 3.36914 0 3.5688 0 3.777C0 3.98519 0.0827051 4.18486 0.229921 4.33208C0.377137 4.47929 0.576805 4.562 0.785 4.562C0.993195 4.562 1.19286 4.47929 1.34008 4.33208C1.48729 4.18486 1.57 3.98519 1.57 3.777Z" fill="#4E5968"/>
</svg>
