<svg width="36" height="36" viewBox="0 0 36 36" fill="none" xmlns="http://www.w3.org/2000/svg">
<rect width="36" height="36" rx="8" fill="#1C1A42" fill-opacity="0.04"/>
<path fill-rule="evenodd" clip-rule="evenodd" d="M16.001 11.23C16.001 10.9673 16.0528 10.7071 16.1534 10.4645C16.254 10.2218 16.4014 10.0013 16.5872 9.81556C16.773 9.62984 16.9936 9.48254 17.2364 9.38207C17.4791 9.28159 17.7392 9.22991 18.002 9.22998C18.2647 9.23005 18.5248 9.28186 18.7675 9.38245C19.0102 9.48305 19.2307 9.63046 19.4164 9.81627C19.6021 10.0021 19.7494 10.2226 19.8499 10.4654C19.9503 10.7081 20.002 10.9683 20.002 11.231C20.0018 11.7615 19.7909 12.2703 19.4157 12.6454C19.0404 13.0205 18.5315 13.2311 18.001 13.231C17.4704 13.2308 16.9616 13.02 16.5865 12.6447C16.2115 12.2694 16.0008 11.7605 16.001 11.23M16.001 18.001C16.001 17.4705 16.2117 16.9618 16.5867 16.5868C16.9618 16.2117 17.4705 16.001 18.001 16.001C18.5314 16.001 19.0401 16.2117 19.4152 16.5868C19.7902 16.9618 20.001 17.4705 20.001 18.001C20.001 18.5314 19.7902 19.0401 19.4152 19.4152C19.0401 19.7903 18.5314 20.001 18.001 20.001C17.4705 20.001 16.9618 19.7903 16.5867 19.4152C16.2117 19.0401 16.001 18.5314 16.001 18.001ZM16.001 24.771C16.001 24.5083 16.0528 24.2481 16.1534 24.0055C16.254 23.7628 16.4014 23.5423 16.5872 23.3566C16.773 23.1708 16.9936 23.0235 17.2364 22.9231C17.4791 22.8226 17.7392 22.7709 18.002 22.771C18.2647 22.771 18.5248 22.8229 18.7675 22.9235C19.0102 23.024 19.2307 23.1715 19.4164 23.3573C19.6021 23.5431 19.7494 23.7636 19.8499 24.0064C19.9503 24.2491 20.002 24.5093 20.002 24.772C20.0018 25.3025 19.7909 25.8113 19.4157 26.1864C19.0404 26.5615 18.5315 26.7721 18.001 26.772C17.4704 26.7718 16.9616 26.561 16.5865 26.1857C16.2115 25.8104 16.0008 25.3015 16.001 24.771" fill="#4E5968"/>
</svg>
