<svg width="18" height="18" viewBox="0 0 18 18" fill="none" xmlns="http://www.w3.org/2000/svg">
<path d="M14.9231 3H3.07698C2.79136 3 2.51744 3.10602 2.31548 3.29473C2.11352 3.48345 2.00006 3.7394 2.00006 4.00628V13.9937C1.99791 14.1861 2.05602 14.375 2.16723 14.537C2.27844 14.699 2.43791 14.8271 2.62602 14.9056C2.81114 14.9863 3.01703 15.0162 3.21963 14.9917C3.42224 14.9672 3.6132 14.8893 3.77024 14.7672L5.90389 13.088L14.9231 13.0628C15.2087 13.0628 15.4826 12.9568 15.6846 12.7681C15.8865 12.5794 16 12.3234 16 12.0566V4.00628C16 3.7394 15.8865 3.48345 15.6846 3.29473C15.4826 3.10602 15.2087 3 14.9231 3ZM11.1539 9.54085H6.84619C6.70338 9.54085 6.56642 9.48784 6.46544 9.39348C6.36446 9.29912 6.30773 9.17115 6.30773 9.0377C6.30773 8.90426 6.36446 8.77629 6.46544 8.68193C6.56642 8.58757 6.70338 8.53456 6.84619 8.53456H11.1539C11.2967 8.53456 11.4336 8.58757 11.5346 8.68193C11.6356 8.77629 11.6923 8.90426 11.6923 9.0377C11.6923 9.17115 11.6356 9.29912 11.5346 9.39348C11.4336 9.48784 11.2967 9.54085 11.1539 9.54085ZM11.1539 7.52828H6.84619C6.70338 7.52828 6.56642 7.47527 6.46544 7.38091C6.36446 7.28655 6.30773 7.15858 6.30773 7.02514C6.30773 6.89169 6.36446 6.76372 6.46544 6.66936C6.56642 6.575 6.70338 6.52199 6.84619 6.52199H11.1539C11.2967 6.52199 11.4336 6.575 11.5346 6.66936C11.6356 6.76372 11.6923 6.89169 11.6923 7.02514C11.6923 7.15858 11.6356 7.28655 11.5346 7.38091C11.4336 7.47527 11.2967 7.52828 11.1539 7.52828Z" fill="#5568F9"/>
</svg>
