<svg width="44" height="44" viewBox="0 0 44 44" fill="none" xmlns="http://www.w3.org/2000/svg">
<rect width="44" height="44" rx="12" fill="#F2F4F6"/>
<path d="M21.4652 16.6938L23.3215 14.8376C24.1074 14.1212 25.1391 13.7353 26.2022 13.7599C27.2653 13.7845 28.278 14.2178 29.03 14.9697C29.7819 15.7216 30.2152 16.7344 30.2398 17.7975C30.2644 18.8606 29.8784 19.8923 29.1621 20.6782L26.509 23.3219C26.1266 23.7057 25.6722 24.0103 25.1719 24.2181C24.6716 24.4259 24.1351 24.5328 23.5934 24.5328C23.0516 24.5328 22.5152 24.4259 22.0148 24.2181C21.5145 24.0103 21.0601 23.7057 20.6777 23.3219" stroke="#4E5968" stroke-width="2" stroke-linecap="round" stroke-linejoin="round"/>
<path d="M22.5335 27.3063L20.6772 29.1625C19.8913 29.8789 18.8596 30.2648 17.7965 30.2402C16.7334 30.2156 15.7207 29.7823 14.9687 29.0304C14.2168 28.2785 13.7835 27.2657 13.7589 26.2026C13.7343 25.1395 14.1203 24.1078 14.8366 23.3219L17.4897 20.6782C17.8721 20.2944 18.3265 19.9898 18.8268 19.782C19.3271 19.5743 19.8636 19.4673 20.4053 19.4673C20.9471 19.4673 21.4835 19.5743 21.9839 19.782C22.4842 19.9898 22.9386 20.2944 23.321 20.6782" stroke="#4E5968" stroke-width="2" stroke-linecap="round" stroke-linejoin="round"/>
</svg>
