<svg width="23" height="28" viewBox="10 0 47 45" fill="none" xmlns="http://www.w3.org/2000/svg">
<g clip-path="url(#clip0_1072_16008)" filter="url(#filter0_d_1072_16008)">
<path d="M23 22.6536C23 32.2226 31.489 40.1358 35.2464 43.1697C35.7841 43.6039 36.0562 43.8236 36.4574 43.9349C36.7698 44.0217 37.2296 44.0217 37.542 43.9349C37.9439 43.8234 38.2141 43.6058 38.7539 43.17C42.5113 40.1361 50.9998 32.2235 50.9998 22.6545C50.9998 19.0332 49.5249 15.5598 46.8994 12.9992C44.2739 10.4385 40.7132 9 37.0002 9C33.2871 9 29.726 10.4388 27.1005 12.9994C24.475 15.56 23 19.0323 23 22.6536Z" fill="#5568F9"/>
<path d="M33 20.8335C33 23.012 34.7909 24.778 37 24.778C39.2091 24.778 41 23.012 41 20.8335C41 18.655 39.2091 16.889 37 16.889C34.7909 16.889 33 18.655 33 20.8335Z" fill="#5568F9"/>
<path d="M23 22.6536C23 32.2226 31.489 40.1358 35.2464 43.1697C35.7841 43.6039 36.0562 43.8236 36.4574 43.9349C36.7698 44.0217 37.2296 44.0217 37.542 43.9349C37.9439 43.8234 38.2141 43.6058 38.7539 43.17C42.5113 40.1361 50.9998 32.2235 50.9998 22.6545C50.9998 19.0332 49.5249 15.5598 46.8994 12.9992C44.2739 10.4385 40.7132 9 37.0002 9C33.2871 9 29.726 10.4388 27.1005 12.9994C24.475 15.56 23 19.0323 23 22.6536Z" stroke="#5568F9" stroke-width="4" stroke-linecap="round" stroke-linejoin="round"/>
<path d="M33 20.8335C33 23.012 34.7909 24.778 37 24.778C39.2091 24.778 41 23.012 41 20.8335C41 18.655 39.2091 16.889 37 16.889C34.7909 16.889 33 18.655 33 20.8335Z" stroke="#5568F9" stroke-width="4" stroke-linecap="round" stroke-linejoin="round"/>
<path d="M33 21C33 23.2091 34.7909 25 37 25C39.2091 25 41 23.2091 41 21C41 18.7909 39.2091 17 37 17C34.7909 17 33 18.7909 33 21Z" fill="white" stroke="white" stroke-width="4" stroke-linecap="round" stroke-linejoin="round"/>
</g>
</svg>
