<svg width="71" height="16" viewBox="0 0 71 16" fill="none" xmlns="http://www.w3.org/2000/svg">
<path d="M8.32923 5.47786C8.2875 5.30542 8.29738 5.1231 8.32045 5.02864C8.37866 4.75625 8.56428 4.45201 9.10357 4.45201C9.60441 4.45201 9.89877 4.76284 9.89877 5.22854V5.75794H12.0328V5.15715C12.0317 3.29655 10.3546 3 9.1453 3C7.6252 3 6.38407 3.50414 6.15671 4.90123C6.09411 5.28455 6.08422 5.62174 6.17429 6.05449C6.54443 7.80305 9.58464 8.30939 10.0273 9.41542C10.1096 9.62081 10.0855 9.88551 10.0437 10.047C9.97345 10.3347 9.78015 10.6247 9.20791 10.6247C8.67302 10.6247 8.3534 10.3139 8.3534 9.84597L8.3501 9.02331H6.05566V9.67683C6.05566 11.589 7.5571 12.1646 9.16507 12.1646C10.773 12.1646 11.9801 11.6374 12.1866 10.2062C12.2899 9.46814 12.2119 8.98817 12.1778 8.80584C11.8165 7.01115 8.57307 6.47845 8.32923 5.47786ZM36.147 5.49873C36.1085 5.32959 36.1195 5.15056 36.1393 5.0561C36.2008 4.78261 36.3842 4.48386 36.9147 4.48386C37.409 4.48386 37.6978 4.7914 37.6978 5.2538V5.77661H39.8066V5.18021C39.8066 3.33719 38.1547 3.04723 36.9575 3.04723C35.4506 3.04723 34.2205 3.54368 33.9953 4.93089C33.936 5.30872 33.9206 5.64371 34.0162 6.07097C34.383 7.79976 37.3925 8.3017 37.8296 9.39565C37.9065 9.60324 37.8845 9.86684 37.845 10.0228C37.7791 10.3073 37.588 10.5939 37.0202 10.5939C36.4875 10.5939 36.1678 10.2875 36.1678 9.8262V9.00574H33.8976V9.65816C33.8976 11.5484 35.3781 12.1195 36.974 12.1195C38.5699 12.1195 39.7638 11.5978 39.9659 10.1821C40.0626 9.45057 39.9901 8.97499 39.9505 8.79486C39.5969 7.02103 36.3886 6.48834 36.1459 5.49763L36.147 5.49873ZM55.5701 10.159L53.5557 3.27239H50.3815V11.7373H52.4815L52.3596 4.62994L54.5233 11.7373H57.568V3.27239H55.4547L55.5712 10.159H55.5701ZM15.2136 3.27239L13.6287 11.8263H15.9397L17.1336 3.90833L18.2989 11.8263H20.5933L19.015 3.27239H15.2126H15.2136ZM28.1335 3.27239L27.0538 9.9591L25.9752 3.27239H22.4858L22.3013 11.8263H24.4386L24.4968 3.90833L25.9675 11.8263H28.1368L29.6085 3.90833L29.6667 11.8263H31.8096L31.6185 3.27239H28.1335ZM48.0102 3.27239H45.8464V9.59994C45.8497 9.70978 45.8464 9.83389 45.8278 9.92505C45.7827 10.137 45.6026 10.5467 45.0062 10.5467C44.4098 10.5467 44.2319 10.1381 44.1901 9.92505C44.1682 9.83389 44.166 9.70978 44.1682 9.59994V3.27239H42.0055V9.40334C42.0033 9.5615 42.0154 9.88441 42.0242 9.96899C42.1736 11.5671 43.4323 12.0855 45.0051 12.0855C46.5779 12.0855 47.8388 11.5671 47.9915 9.96899C48.0036 9.88441 48.019 9.5615 48.0102 9.40334V3.27239ZM62.8631 7.02433V8.27205H63.7395V9.50988C63.7417 9.62081 63.7362 9.73943 63.7176 9.83499C63.6824 10.0656 63.4639 10.4588 62.8411 10.4588C62.2183 10.4588 62.0075 10.0656 61.9701 9.83499C61.9547 9.73943 61.9481 9.61971 61.9481 9.50988V5.60088C61.9481 5.46249 61.958 5.31091 61.9866 5.19669C62.0294 4.988 62.2139 4.57722 62.8367 4.57722C63.4913 4.57722 63.6539 5.00997 63.6912 5.19669C63.7154 5.3197 63.7176 5.52619 63.7176 5.52619V6.00067H65.8714V5.7206C65.8714 5.7206 65.8813 5.42734 65.8549 5.15495C65.6935 3.55027 64.3711 3.04284 62.8554 3.04284C61.3397 3.04284 60.0414 3.55466 59.8525 5.15495C59.8349 5.30103 59.8097 5.56463 59.8097 5.7206V9.31657C59.8097 9.47363 59.8152 9.59445 59.8437 9.88112C59.9843 11.4419 61.3364 11.9943 62.8488 11.9943C64.3612 11.9943 65.7133 11.4408 65.8571 9.88112C65.8824 9.59445 65.8857 9.47363 65.889 9.31657V7.02433H62.8631Z" fill="#1428A0"/>
</svg>
