<?xml version="1.0" encoding="UTF-8"?><!DOCTYPE svg PUBLIC "-//W3C//DTD SVG 1.1//EN" "http://www.w3.org/Graphics/SVG/1.1/DTD/svg11.dtd"><svg xmlns="http://www.w3.org/2000/svg" xmlns:xlink="http://www.w3.org/1999/xlink"><defs>
<clipPath id="clip0_286_7167">
<rect width="12" height="12" fill="white" transform="translate(11.998 12.0005)"/>
</clipPath>

<clipPath id="clip0_476_11803">
<rect width="12" height="12" fill="white" transform="translate(11.998 12.0002)"/>
</clipPath>

<clipPath id="clip0_286_7166">
<rect width="12" height="12" fill="white" transform="translate(11.998 12.0005)"/>
</clipPath>

<clipPath id="clip0_300_6281">
<rect width="12" height="12" fill="white" transform="translate(11.998 12.0002)"/>
</clipPath>

<clipPath id="clip0_239_7080">
<rect width="36" height="36" fill="white"/>
</clipPath>
</defs><symbol id="calendar" viewBox="0 0 24 24">
<path d="M7.2002 4H8H16H16.8002C17.9203 4 18.4796 4 18.9074 4.21799C19.2837 4.40973 19.5905 4.71547 19.7822 5.0918C20 5.5192 20 6.07899 20 7.19691V8V16.8036C20 17.9215 20 18.4805 19.7822 18.9079C19.5905 19.2842 19.2837 19.5905 18.9074 19.7822C18.48 20 17.921 20 16.8031 20H7.19691C6.07899 20 5.5192 20 5.0918 19.7822C4.71547 19.5905 4.40973 19.2842 4.21799 18.9079C4 18.4801 4 17.9203 4 16.8002V8V7.2002C4 6.08009 4 5.51962 4.21799 5.0918C4.40973 4.71547 4.71547 4.40973 5.0918 4.21799C5.51962 4 6.08009 4 7.2002 4Z" fill="#B0B8C1"/>
<path d="M4 8H20M4 8V16.8002C4 17.9203 4 18.4801 4.21799 18.9079C4.40973 19.2842 4.71547 19.5905 5.0918 19.7822C5.5192 20 6.07899 20 7.19691 20H16.8031C17.921 20 18.48 20 18.9074 19.7822C19.2837 19.5905 19.5905 19.2842 19.7822 18.9079C20 18.4805 20 17.9215 20 16.8036V8M4 8V7.2002C4 6.08009 4 5.51962 4.21799 5.0918C4.40973 4.71547 4.71547 4.40973 5.0918 4.21799C5.51962 4 6.08009 4 7.2002 4H8M20 8V7.19691C20 6.07899 20 5.5192 19.7822 5.0918C19.5905 4.71547 19.2837 4.40973 18.9074 4.21799C18.4796 4 17.9203 4 16.8002 4H16M8 4H16M8 4V2M16 4V2M14.5 14H9.5" stroke="#B0B8C1" stroke-width="2" stroke-linecap="round" stroke-linejoin="round"/>
<path d="M14.5 14H9.5" stroke="white" stroke-width="2" stroke-linecap="round" stroke-linejoin="round"/>
<path d="M5 7C5 5.89543 5.89543 5 7 5H17C18.1046 5 19 5.89543 19 7C19 7.55228 18.5523 8 18 8H6C5.44772 8 5 7.55228 5 7Z" fill="white"/>
</symbol><symbol id="caretdown" viewBox="0 0 24 24">
<path fill-rule="evenodd" clip-rule="evenodd" d="M7.29289 9.29289C7.68342 8.90237 8.31658 8.90237 8.70711 9.29289L12 12.5858L15.2929 9.29289C15.6834 8.90237 16.3166 8.90237 16.7071 9.29289C17.0976 9.68342 17.0976 10.3166 16.7071 10.7071L12.7071 14.7071C12.3166 15.0976 11.6834 15.0976 11.2929 14.7071L7.29289 10.7071C6.90237 10.3166 6.90237 9.68342 7.29289 9.29289Z" fill="#6A737E"/>
</symbol><symbol id="chat" viewBox="0 0 24 24">
<path d="M5.59961 19.9203L7.12357 18.7012L7.13478 18.6926C7.45249 18.4384 7.61281 18.3101 7.79168 18.2188C7.95216 18.1368 8.12328 18.0771 8.2998 18.0408C8.49877 18 8.70603 18 9.12207 18H17.8031C18.921 18 19.4806 18 19.908 17.7822C20.2843 17.5905 20.5905 17.2842 20.7822 16.9079C21 16.4805 21 15.9215 21 14.8036V7.19691C21 6.07899 21 5.5192 20.7822 5.0918C20.5905 4.71547 20.2837 4.40973 19.9074 4.21799C19.4796 4 18.9203 4 17.8002 4H6.2002C5.08009 4 4.51962 4 4.0918 4.21799C3.71547 4.40973 3.40973 4.71547 3.21799 5.0918C3 5.51962 3 6.08009 3 7.2002V18.6712C3 19.7369 3 20.2696 3.21846 20.5433C3.40845 20.7813 3.69644 20.9198 4.00098 20.9195C4.35115 20.9191 4.76744 20.5861 5.59961 19.9203Z" fill="#B0B8C1"/>
<path d="M9 11H15M7.12357 18.7012L5.59961 19.9203C4.76744 20.5861 4.35115 20.9191 4.00098 20.9195C3.69644 20.9198 3.40845 20.7813 3.21846 20.5433C3 20.2696 3 19.7369 3 18.6712V7.2002C3 6.08009 3 5.51962 3.21799 5.0918C3.40973 4.71547 3.71547 4.40973 4.0918 4.21799C4.51962 4 5.08009 4 6.2002 4H17.8002C18.9203 4 19.4796 4 19.9074 4.21799C20.2837 4.40973 20.5905 4.71547 20.7822 5.0918C21 5.5192 21 6.07899 21 7.19691V14.8036C21 15.9215 21 16.4805 20.7822 16.9079C20.5905 17.2842 20.2843 17.5905 19.908 17.7822C19.4806 18 18.921 18 17.8031 18H9.12207C8.70603 18 8.49877 18 8.2998 18.0408C8.12328 18.0771 7.95216 18.1368 7.79168 18.2188C7.61281 18.3101 7.45249 18.4384 7.13478 18.6926L7.12357 18.7012Z" stroke="#B0B8C1" stroke-width="2" stroke-linecap="round" stroke-linejoin="round"/>
<path d="M9 11H15" stroke="white" stroke-width="2" stroke-linecap="round" stroke-linejoin="round"/>
</symbol><symbol id="check-active" viewBox="0 0 36 36">
<circle cx="18" cy="18" r="12" fill="#5568F9"/>
<g clip-path="url(#clip0_286_7167)">
<path d="M23.6484 15.6846L17.318 22.0146C16.8492 22.4835 16.0888 22.4835 15.6196 22.0146L12.3517 18.7466C11.8828 18.2778 11.8828 17.5172 12.3517 17.0483C12.8208 16.5792 13.5812 16.5792 14.05 17.0481L16.469 19.4671L21.95 13.9862C22.419 13.5171 23.1795 13.5175 23.6483 13.9862C24.1171 14.4552 24.1171 15.2154 23.6484 15.6846Z" fill="white"/>
</g>

</symbol><symbol id="check-error" viewBox="0 0 36 36">
<circle cx="18" cy="18" r="11.3296" fill="#D1D6DC" stroke="#FF5353" stroke-width="1.34074"/>
<g clip-path="url(#clip0_476_11803)">
<path d="M23.6484 15.6844L17.318 22.0144C16.8492 22.4832 16.0888 22.4832 15.6196 22.0144L12.3517 18.7464C11.8828 18.2775 11.8828 17.517 12.3517 17.048C12.8208 16.579 13.5812 16.579 14.05 17.0478L16.469 19.4669L21.95 13.9859C22.419 13.5169 23.1795 13.5172 23.6483 13.9859C24.1171 14.4549 24.1171 15.2151 23.6484 15.6844Z" fill="white"/>
</g>

</symbol><symbol id="check-hover" viewBox="0 0 36 36">
<circle cx="18" cy="18" r="16" fill="#1C1A42" fill-opacity="0.04"/>
<circle cx="18" cy="18" r="12" fill="#D1D6DC"/>
<g clip-path="url(#clip0_286_7166)">
<path d="M23.6484 15.6846L17.318 22.0146C16.8492 22.4835 16.0888 22.4835 15.6196 22.0146L12.3517 18.7466C11.8828 18.2778 11.8828 17.5172 12.3517 17.0483C12.8208 16.5792 13.5812 16.5792 14.05 17.0481L16.469 19.4671L21.95 13.9862C22.419 13.5171 23.1795 13.5175 23.6483 13.9862C24.1171 14.4552 24.1171 15.2154 23.6484 15.6846Z" fill="white"/>
</g>

</symbol><symbol id="check" viewBox="0 0 36 36">
<circle cx="18" cy="18" r="12" fill="#D1D6DC"/>
<g clip-path="url(#clip0_300_6281)">
<path d="M23.6484 15.6844L17.318 22.0144C16.8492 22.4832 16.0888 22.4832 15.6196 22.0144L12.3517 18.7464C11.8828 18.2775 11.8828 17.517 12.3517 17.048C12.8208 16.579 13.5812 16.579 14.05 17.0478L16.469 19.4669L21.95 13.9859C22.419 13.5169 23.1795 13.5172 23.6483 13.9859C24.1171 14.4549 24.1171 15.2151 23.6484 15.6844Z" fill="white"/>
</g>

</symbol><symbol id="chevrondown" viewBox="0 0 24 24">
<path fill-rule="evenodd" clip-rule="evenodd" d="M7.29289 9.29289C7.68342 8.90237 8.31658 8.90237 8.70711 9.29289L12 12.5858L15.2929 9.29289C15.6834 8.90237 16.3166 8.90237 16.7071 9.29289C17.0976 9.68342 17.0976 10.3166 16.7071 10.7071L12.7071 14.7071C12.3166 15.0976 11.6834 15.0976 11.2929 14.7071L7.29289 10.7071C6.90237 10.3166 6.90237 9.68342 7.29289 9.29289Z" fill="#4E5968"/>
</symbol><symbol id="chevronleft-disable" viewBox="0 0 36 36">
<g opacity="0.3">
<path d="M21 25L14 18L21 11" stroke="#4E5968" stroke-width="2" stroke-linecap="round" stroke-linejoin="round"/>
</g>
</symbol><symbol id="chevronleft-hover" viewBox="0 0 36 36">
<rect width="36" height="36" rx="8" fill="#1C1A42" fill-opacity="0.04"/>
<path d="M21 25L14 18L21 11" stroke="#4E5968" stroke-width="2" stroke-linecap="round" stroke-linejoin="round"/>
</symbol><symbol id="chevronleft" viewBox="0 0 36 36">
<path d="M21 25L14 18L21 11" stroke="#4E5968" stroke-width="2" stroke-linecap="round" stroke-linejoin="round"/>
</symbol><symbol id="chevronright-disable" viewBox="0 0 36 36">
<g opacity="0.3">
<path d="M14 11L21 18L14 25" stroke="#4E5968" stroke-width="2" stroke-linecap="round" stroke-linejoin="round"/>
</g>
</symbol><symbol id="chevronright-hover" viewBox="0 0 36 36">
<rect width="36" height="36" rx="8" fill="#1C1A42" fill-opacity="0.04"/>
<path d="M14 11L21 18L14 25" stroke="#4E5968" stroke-width="2" stroke-linecap="round" stroke-linejoin="round"/>
</symbol><symbol id="chevronright" viewBox="0 0 36 36">
<path d="M14 11L21 18L14 25" stroke="#4E5968" stroke-width="2" stroke-linecap="round" stroke-linejoin="round"/>
</symbol><symbol id="clear" viewBox="0 0 24 24">
<path d="M3 12C3 16.9706 7.02944 21 12 21C16.9706 21 21 16.9706 21 12C21 7.02944 16.9706 3 12 3C7.02944 3 3 7.02944 3 12Z" fill="#D1D6DC"/>
<path d="M9 9L11.9999 11.9999M11.9999 11.9999L14.9999 14.9999M11.9999 11.9999L9 14.9999M11.9999 11.9999L14.9999 9M12 21C7.02944 21 3 16.9706 3 12C3 7.02944 7.02944 3 12 3C16.9706 3 21 7.02944 21 12C21 16.9706 16.9706 21 12 21Z" stroke="#D1D6DC" stroke-width="2" stroke-linecap="round" stroke-linejoin="round"/>
<path d="M9 9L11.9999 11.9999M11.9999 11.9999L14.9999 14.9999M11.9999 11.9999L9 14.9999M11.9999 11.9999L14.9999 9" stroke="white" stroke-width="2" stroke-linecap="round" stroke-linejoin="round"/>
</symbol><symbol id="close-hover" viewBox="0 0 36 36">
<rect width="36" height="36" rx="8" fill="#1C1A42" fill-opacity="0.04"/>
<path d="M24 24L18 18M18 18L12 12M18 18L24 12M18 18L12 24" stroke="#4E5968" stroke-width="2" stroke-linecap="round" stroke-linejoin="round"/>
</symbol><symbol id="close" viewBox="0 0 36 36">
<path d="M24 24L18 18M18 18L12 12M18 18L24 12M18 18L12 24" stroke="#4E5968" stroke-width="2" stroke-linecap="round" stroke-linejoin="round"/>
</symbol><symbol id="copy-hover" viewBox="0 0 36 36">
<path d="M15 15V12.2002C15 11.0801 15 10.5196 15.218 10.0918C15.4097 9.71547 15.7155 9.40973 16.0918 9.21799C16.5196 9 17.0801 9 18.2002 9H23.8002C24.9203 9 25.4801 9 25.9079 9.21799C26.2842 9.40973 26.5905 9.71547 26.7822 10.0918C27.0002 10.5196 27.0002 11.0797 27.0002 12.1998V17.7998C27.0002 18.9199 27.0002 19.48 26.7822 19.9078C26.5905 20.2841 26.2839 20.5905 25.9076 20.7822C25.4802 21 24.921 21 23.8031 21H21M15 15H12.2002C11.0801 15 10.5196 15 10.0918 15.218C9.71547 15.4097 9.40973 15.7155 9.21799 16.0918C9 16.5196 9 17.0801 9 18.2002V23.8002C9 24.9203 9 25.4801 9.21799 25.9079C9.40973 26.2842 9.71547 26.5905 10.0918 26.7822C10.5192 27 11.079 27 12.1969 27H17.8036C18.9215 27 19.4805 27 19.9079 26.7822C20.2842 26.5905 20.5905 26.2839 20.7822 25.9076C21 25.4802 21 24.921 21 23.8031V21M15 15H17.8002C18.9203 15 19.4801 15 19.9079 15.218C20.2842 15.4097 20.5905 15.7155 20.7822 16.0918C21 16.5192 21 17.079 21 18.1969L21 21" stroke="#4E5968" stroke-width="2" stroke-linecap="round" stroke-linejoin="round"/>
<rect width="36" height="36" rx="8" fill="#1C1A42" fill-opacity="0.04"/>
</symbol><symbol id="copy" viewBox="0 0 36 36">
<path d="M15 15V12.2002C15 11.0801 15 10.5196 15.218 10.0918C15.4097 9.71547 15.7155 9.40973 16.0918 9.21799C16.5196 9 17.0801 9 18.2002 9H23.8002C24.9203 9 25.4801 9 25.9079 9.21799C26.2842 9.40973 26.5905 9.71547 26.7822 10.0918C27.0002 10.5196 27.0002 11.0797 27.0002 12.1998V17.7998C27.0002 18.9199 27.0002 19.48 26.7822 19.9078C26.5905 20.2841 26.2839 20.5905 25.9076 20.7822C25.4802 21 24.921 21 23.8031 21H21M15 15H12.2002C11.0801 15 10.5196 15 10.0918 15.218C9.71547 15.4097 9.40973 15.7155 9.21799 16.0918C9 16.5196 9 17.0801 9 18.2002V23.8002C9 24.9203 9 25.4801 9.21799 25.9079C9.40973 26.2842 9.71547 26.5905 10.0918 26.7822C10.5192 27 11.079 27 12.1969 27H17.8036C18.9215 27 19.4805 27 19.9079 26.7822C20.2842 26.5905 20.5905 26.2839 20.7822 25.9076C21 25.4802 21 24.921 21 23.8031V21M15 15H17.8002C18.9203 15 19.4801 15 19.9079 15.218C20.2842 15.4097 20.5905 15.7155 20.7822 16.0918C21 16.5192 21 17.079 21 18.1969L21 21" stroke="#4E5968" stroke-width="2" stroke-linecap="round" stroke-linejoin="round"/>
</symbol><symbol id="dot-hover" viewBox="0 0 36 36">
<rect width="36" height="36" rx="8" fill="#1C1A42" fill-opacity="0.04"/>
<path fill-rule="evenodd" clip-rule="evenodd" d="M16.001 11.23C16.001 10.9673 16.0528 10.7071 16.1534 10.4645C16.254 10.2218 16.4014 10.0013 16.5872 9.81556C16.773 9.62984 16.9936 9.48254 17.2364 9.38207C17.4791 9.28159 17.7392 9.22991 18.002 9.22998C18.2647 9.23005 18.5248 9.28186 18.7675 9.38245C19.0102 9.48305 19.2307 9.63046 19.4164 9.81627C19.6021 10.0021 19.7494 10.2226 19.8499 10.4654C19.9503 10.7081 20.002 10.9683 20.002 11.231C20.0018 11.7615 19.7909 12.2703 19.4157 12.6454C19.0404 13.0205 18.5315 13.2311 18.001 13.231C17.4704 13.2308 16.9616 13.02 16.5865 12.6447C16.2115 12.2694 16.0008 11.7605 16.001 11.23M16.001 18.001C16.001 17.4705 16.2117 16.9618 16.5867 16.5868C16.9618 16.2117 17.4705 16.001 18.001 16.001C18.5314 16.001 19.0401 16.2117 19.4152 16.5868C19.7902 16.9618 20.001 17.4705 20.001 18.001C20.001 18.5314 19.7902 19.0401 19.4152 19.4152C19.0401 19.7903 18.5314 20.001 18.001 20.001C17.4705 20.001 16.9618 19.7903 16.5867 19.4152C16.2117 19.0401 16.001 18.5314 16.001 18.001ZM16.001 24.771C16.001 24.5083 16.0528 24.2481 16.1534 24.0055C16.254 23.7628 16.4014 23.5423 16.5872 23.3566C16.773 23.1708 16.9936 23.0235 17.2364 22.9231C17.4791 22.8226 17.7392 22.7709 18.002 22.771C18.2647 22.771 18.5248 22.8229 18.7675 22.9235C19.0102 23.024 19.2307 23.1715 19.4164 23.3573C19.6021 23.5431 19.7494 23.7636 19.8499 24.0064C19.9503 24.2491 20.002 24.5093 20.002 24.772C20.0018 25.3025 19.7909 25.8113 19.4157 26.1864C19.0404 26.5615 18.5315 26.7721 18.001 26.772C17.4704 26.7718 16.9616 26.561 16.5865 26.1857C16.2115 25.8104 16.0008 25.3015 16.001 24.771" fill="#4E5968"/>
</symbol><symbol id="dot" viewBox="0 0 36 36">
<path fill-rule="evenodd" clip-rule="evenodd" d="M16.001 11.23C16.001 10.9673 16.0528 10.7071 16.1534 10.4645C16.254 10.2218 16.4014 10.0013 16.5872 9.81556C16.773 9.62984 16.9936 9.48254 17.2364 9.38207C17.4791 9.28159 17.7392 9.22991 18.002 9.22998C18.2647 9.23005 18.5248 9.28186 18.7675 9.38245C19.0102 9.48305 19.2307 9.63046 19.4164 9.81627C19.6021 10.0021 19.7494 10.2226 19.8499 10.4654C19.9503 10.7081 20.002 10.9683 20.002 11.231C20.0018 11.7615 19.7909 12.2703 19.4157 12.6454C19.0404 13.0205 18.5315 13.2311 18.001 13.231C17.4704 13.2308 16.9616 13.02 16.5865 12.6447C16.2115 12.2694 16.0008 11.7605 16.001 11.23ZM16.001 18.001C16.001 17.4705 16.2117 16.9618 16.5867 16.5868C16.9618 16.2117 17.4705 16.001 18.001 16.001C18.5314 16.001 19.0401 16.2117 19.4152 16.5868C19.7902 16.9618 20.001 17.4705 20.001 18.001C20.001 18.5314 19.7902 19.0401 19.4152 19.4152C19.0401 19.7903 18.5314 20.001 18.001 20.001C17.4705 20.001 16.9618 19.7903 16.5867 19.4152C16.2117 19.0401 16.001 18.5314 16.001 18.001ZM16.001 24.771C16.001 24.5083 16.0528 24.2481 16.1534 24.0055C16.254 23.7628 16.4014 23.5423 16.5872 23.3566C16.773 23.1708 16.9936 23.0235 17.2364 22.9231C17.4791 22.8226 17.7392 22.7709 18.002 22.771C18.2647 22.771 18.5248 22.8229 18.7675 22.9235C19.0102 23.024 19.2307 23.1715 19.4164 23.3573C19.6021 23.5431 19.7494 23.7636 19.8499 24.0064C19.9503 24.2491 20.002 24.5093 20.002 24.772C20.0018 25.3025 19.7909 25.8113 19.4157 26.1864C19.0404 26.5615 18.5315 26.7721 18.001 26.772C17.4704 26.7718 16.9616 26.561 16.5865 26.1857C16.2115 25.8104 16.0008 25.3015 16.001 24.771Z" fill="#4E5968"/>
</symbol><symbol id="link-hover" viewBox="0 0 44 44">
<rect width="44" height="44" rx="12" fill="#E5E8EB"/>
<path d="M21.4652 16.6938L23.3215 14.8376C24.1074 14.1212 25.1391 13.7353 26.2022 13.7599C27.2653 13.7845 28.278 14.2178 29.03 14.9697C29.7819 15.7216 30.2152 16.7344 30.2398 17.7975C30.2644 18.8606 29.8784 19.8923 29.1621 20.6782L26.509 23.3219C26.1266 23.7057 25.6722 24.0103 25.1719 24.2181C24.6716 24.4259 24.1351 24.5328 23.5934 24.5328C23.0516 24.5328 22.5152 24.4259 22.0148 24.2181C21.5145 24.0103 21.0601 23.7057 20.6777 23.3219" stroke="#4E5968" stroke-width="2" stroke-linecap="round" stroke-linejoin="round"/>
<path d="M22.5335 27.3063L20.6772 29.1625C19.8913 29.8789 18.8596 30.2648 17.7965 30.2402C16.7334 30.2156 15.7207 29.7823 14.9687 29.0304C14.2168 28.2785 13.7835 27.2657 13.7589 26.2026C13.7343 25.1395 14.1203 24.1078 14.8366 23.3219L17.4897 20.6782C17.8721 20.2944 18.3265 19.9898 18.8268 19.782C19.3271 19.5743 19.8636 19.4673 20.4053 19.4673C20.9471 19.4673 21.4835 19.5743 21.9839 19.782C22.4842 19.9898 22.9386 20.2944 23.321 20.6782" stroke="#4E5968" stroke-width="2" stroke-linecap="round" stroke-linejoin="round"/>
</symbol><symbol id="link" viewBox="0 0 44 44">
<rect width="44" height="44" rx="12" fill="#F2F4F6"/>
<path d="M21.4652 16.6938L23.3215 14.8376C24.1074 14.1212 25.1391 13.7353 26.2022 13.7599C27.2653 13.7845 28.278 14.2178 29.03 14.9697C29.7819 15.7216 30.2152 16.7344 30.2398 17.7975C30.2644 18.8606 29.8784 19.8923 29.1621 20.6782L26.509 23.3219C26.1266 23.7057 25.6722 24.0103 25.1719 24.2181C24.6716 24.4259 24.1351 24.5328 23.5934 24.5328C23.0516 24.5328 22.5152 24.4259 22.0148 24.2181C21.5145 24.0103 21.0601 23.7057 20.6777 23.3219" stroke="#4E5968" stroke-width="2" stroke-linecap="round" stroke-linejoin="round"/>
<path d="M22.5335 27.3063L20.6772 29.1625C19.8913 29.8789 18.8596 30.2648 17.7965 30.2402C16.7334 30.2156 15.7207 29.7823 14.9687 29.0304C14.2168 28.2785 13.7835 27.2657 13.7589 26.2026C13.7343 25.1395 14.1203 24.1078 14.8366 23.3219L17.4897 20.6782C17.8721 20.2944 18.3265 19.9898 18.8268 19.782C19.3271 19.5743 19.8636 19.4673 20.4053 19.4673C20.9471 19.4673 21.4835 19.5743 21.9839 19.782C22.4842 19.9898 22.9386 20.2944 23.321 20.6782" stroke="#4E5968" stroke-width="2" stroke-linecap="round" stroke-linejoin="round"/>
</symbol><symbol id="map" viewBox="0 0 24 24">
<path d="M5 9.92285C5 14.7747 9.24448 18.7869 11.1232 20.3252C11.3921 20.5454 11.5281 20.6568 11.7287 20.7132C11.8849 20.7572 12.1148 20.7572 12.271 20.7132C12.472 20.6567 12.6071 20.5463 12.877 20.3254C14.7557 18.7871 18.9999 14.7751 18.9999 9.9233C18.9999 8.08718 18.2625 6.32605 16.9497 5.02772C15.637 3.72939 13.8566 3 12.0001 3C10.1436 3 8.36301 3.7295 7.05025 5.02783C5.7375 6.32616 5 8.08674 5 9.92285Z" fill="#B0B8C1"/>
<path d="M10 9C10 10.1046 10.8954 11 12 11C13.1046 11 14 10.1046 14 9C14 7.89543 13.1046 7 12 7C10.8954 7 10 7.89543 10 9Z" fill="#B0B8C1"/>
<path d="M5 9.92285C5 14.7747 9.24448 18.7869 11.1232 20.3252C11.3921 20.5454 11.5281 20.6568 11.7287 20.7132C11.8849 20.7572 12.1148 20.7572 12.271 20.7132C12.472 20.6567 12.6071 20.5463 12.877 20.3254C14.7557 18.7871 18.9999 14.7751 18.9999 9.9233C18.9999 8.08718 18.2625 6.32605 16.9497 5.02772C15.637 3.72939 13.8566 3 12.0001 3C10.1436 3 8.36301 3.7295 7.05025 5.02783C5.7375 6.32616 5 8.08674 5 9.92285Z" stroke="#B0B8C1" stroke-width="2" stroke-linecap="round" stroke-linejoin="round"/>
<path d="M10 9C10 10.1046 10.8954 11 12 11C13.1046 11 14 10.1046 14 9C14 7.89543 13.1046 7 12 7C10.8954 7 10 7.89543 10 9Z" stroke="#B0B8C1" stroke-width="2" stroke-linecap="round" stroke-linejoin="round"/>
<path d="M10 9C10 10.1046 10.8954 11 12 11C13.1046 11 14 10.1046 14 9C14 7.89543 13.1046 7 12 7C10.8954 7 10 7.89543 10 9Z" fill="white" stroke="white" stroke-width="2" stroke-linecap="round" stroke-linejoin="round"/>
</symbol><symbol id="minus-disable" viewBox="0 0 36 36">
<g opacity="0.3">
<path d="M4.5 17.5C4.5 24.9558 10.5442 31 18 31C25.4558 31 31.5 24.9558 31.5 17.5C31.5 10.0442 25.4558 4 18 4C10.5442 4 4.5 10.0442 4.5 17.5Z" fill="#5568F9"/>
<path d="M12 17.5H24M18 31C10.5442 31 4.5 24.9558 4.5 17.5C4.5 10.0442 10.5442 4 18 4C25.4558 4 31.5 10.0442 31.5 17.5C31.5 24.9558 25.4558 31 18 31Z" stroke="#5568F9" stroke-width="2" stroke-linecap="round" stroke-linejoin="round"/>
<path d="M12 18H24" stroke="white" stroke-width="2.5" stroke-linecap="round" stroke-linejoin="round"/>
</g>
</symbol><symbol id="minus-hover" viewBox="0 0 36 36">
<circle cx="18" cy="18" r="12" fill="#1C1A42" fill-opacity="0.08"/>
<path d="M4.5 18C4.5 25.4558 10.5442 31.5 18 31.5C25.4558 31.5 31.5 25.4558 31.5 18C31.5 10.5442 25.4558 4.5 18 4.5C10.5442 4.5 4.5 10.5442 4.5 18Z" fill="#5568F9"/>
<path d="M12 18H24M18 31.5C10.5442 31.5 4.5 25.4558 4.5 18C4.5 10.5442 10.5442 4.5 18 4.5C25.4558 4.5 31.5 10.5442 31.5 18C31.5 25.4558 25.4558 31.5 18 31.5Z" stroke="#5568F9" stroke-width="2" stroke-linecap="round" stroke-linejoin="round"/>
<path d="M12 18H24" stroke="white" stroke-width="2.5" stroke-linecap="round" stroke-linejoin="round"/>
</symbol><symbol id="minus" viewBox="0 0 36 36">
<path d="M4.5 18C4.5 25.4558 10.5442 31.5 18 31.5C25.4558 31.5 31.5 25.4558 31.5 18C31.5 10.5442 25.4558 4.5 18 4.5C10.5442 4.5 4.5 10.5442 4.5 18Z" fill="#5568F9"/>
<path d="M12 18H24M18 31.5C10.5442 31.5 4.5 25.4558 4.5 18C4.5 10.5442 10.5442 4.5 18 4.5C25.4558 4.5 31.5 10.5442 31.5 18C31.5 25.4558 25.4558 31.5 18 31.5Z" stroke="#5568F9" stroke-width="2" stroke-linecap="round" stroke-linejoin="round"/>
<path d="M12 18H24" stroke="white" stroke-width="2.5" stroke-linecap="round" stroke-linejoin="round"/>
</symbol><symbol id="plus-hover" viewBox="0 0 36 36">
<g clip-path="url(#clip0_239_7080)">
<circle cx="18" cy="18" r="18" fill="#1C1A42" fill-opacity="0.04"/>
<path d="M4.5 18C4.5 25.4558 10.5442 31.5 18 31.5C25.4558 31.5 31.5 25.4558 31.5 18C31.5 10.5442 25.4558 4.5 18 4.5C10.5442 4.5 4.5 10.5442 4.5 18Z" fill="#5568F9"/>
<path d="M12 18H18M18 18H24M18 18V24M18 18V12M18 31.5C10.5442 31.5 4.5 25.4558 4.5 18C4.5 10.5442 10.5442 4.5 18 4.5C25.4558 4.5 31.5 10.5442 31.5 18C31.5 25.4558 25.4558 31.5 18 31.5Z" stroke="#5568F9" stroke-width="2" stroke-linecap="round" stroke-linejoin="round"/>
<path d="M12 18H18M18 18H24M18 18V24M18 18V12" stroke="white" stroke-width="2.5" stroke-linecap="round" stroke-linejoin="round"/>
</g>

</symbol><symbol id="plus" viewBox="0 0 36 36">
<path d="M4.5 18C4.5 25.4558 10.5442 31.5 18 31.5C25.4558 31.5 31.5 25.4558 31.5 18C31.5 10.5442 25.4558 4.5 18 4.5C10.5442 4.5 4.5 10.5442 4.5 18Z" fill="#5568F9"/>
<path d="M12 18H18M18 18H24M18 18V24M18 18V12M18 31.5C10.5442 31.5 4.5 25.4558 4.5 18C4.5 10.5442 10.5442 4.5 18 4.5C25.4558 4.5 31.5 10.5442 31.5 18C31.5 25.4558 25.4558 31.5 18 31.5Z" stroke="#5568F9" stroke-width="2" stroke-linecap="round" stroke-linejoin="round"/>
<path d="M12 18H18M18 18H24M18 18V24M18 18V12" stroke="white" stroke-width="2.5" stroke-linecap="round" stroke-linejoin="round"/>
</symbol><symbol id="search" viewBox="0 0 24 24">
<path d="M11 17.9999C14.8659 17.9999 17.9999 14.8659 17.9999 11C17.9999 7.13399 14.8659 4 11 4C7.13399 4 4 7.13399 4 11C4 14.8659 7.13399 17.9999 11 17.9999Z" stroke="#B0B8C1" stroke-width="2" stroke-linecap="round" stroke-linejoin="round"/>
<path d="M15.9513 15.95L20.0013 20" stroke="#B0B8C1" stroke-width="2" stroke-linecap="round" stroke-linejoin="round"/>
</symbol></svg>