<?xml version="1.0" encoding="UTF-8"?><!DOCTYPE svg PUBLIC "-//W3C//DTD SVG 1.1//EN" "http://www.w3.org/Graphics/SVG/1.1/DTD/svg11.dtd"><svg xmlns="http://www.w3.org/2000/svg" xmlns:xlink="http://www.w3.org/1999/xlink"><defs>
<clipPath id="clip0_366_12295">
<rect width="12" height="12" fill="white" transform="translate(5.99805 6.00049)"/>
</clipPath>

<clipPath id="clip0_476_11804">
<rect width="12" height="12" fill="white" transform="translate(5.99805 6.00024)"/>
</clipPath>

<clipPath id="clip0_286_7160">
<rect width="12" height="12" fill="white" transform="translate(9.99805 10.0005)"/>
</clipPath>

<linearGradient id="paint0_linear_214_5469" x1="-6.46409" y1="60" x2="69.7238" y2="60" gradientUnits="userSpaceOnUse">
<stop stop-color="#B0A4EE"/>
<stop offset="1" stop-color="#738CF7"/>
</linearGradient>
<linearGradient id="paint1_linear_214_5469" x1="17.076" y1="37.5" x2="45.6464" y2="37.5" gradientUnits="userSpaceOnUse">
<stop stop-color="#B0A4EE"/>
<stop offset="1" stop-color="#738CF7"/>
</linearGradient>
<clipPath id="clip0_214_5469">
<rect width="36" height="36" fill="white" transform="translate(12 12)"/>
</clipPath>

<clipPath id="clip0_300_6282">
<rect width="12" height="12" fill="white" transform="translate(5.99805 6.00024)"/>
</clipPath>

<filter id="filter0_d_1072_16008" x="-8" y="-4" width="90" height="90" filterUnits="userSpaceOnUse" color-interpolation-filters="sRGB">
<feFlood flood-opacity="0" result="BackgroundImageFix"/>
<feColorMatrix in="SourceAlpha" type="matrix" values="0 0 0 0 0 0 0 0 0 0 0 0 0 0 0 0 0 0 127 0" result="hardAlpha"/>
<feMorphology radius="7" operator="erode" in="SourceAlpha" result="effect1_dropShadow_1072_16008"/>
<feOffset dy="14"/>
<feGaussianBlur stdDeviation="14"/>
<feColorMatrix type="matrix" values="0 0 0 0 0 0 0 0 0 0 0 0 0 0 0 0 0 0 0.04 0"/>
<feBlend mode="normal" in2="BackgroundImageFix" result="effect1_dropShadow_1072_16008"/>
<feBlend mode="normal" in="SourceGraphic" in2="effect1_dropShadow_1072_16008" result="shape"/>
</filter>

<clipPath id="clip0_239_7080">
<rect width="36" height="36" fill="white"/>
</clipPath>
</defs><symbol id="calendar" viewBox="0 0 24 24">
<path d="M7.2002 4H8H16H16.8002C17.9203 4 18.4796 4 18.9074 4.21799C19.2837 4.40973 19.5905 4.71547 19.7822 5.0918C20 5.5192 20 6.07899 20 7.19691V8V16.8036C20 17.9215 20 18.4805 19.7822 18.9079C19.5905 19.2842 19.2837 19.5905 18.9074 19.7822C18.48 20 17.921 20 16.8031 20H7.19691C6.07899 20 5.5192 20 5.0918 19.7822C4.71547 19.5905 4.40973 19.2842 4.21799 18.9079C4 18.4801 4 17.9203 4 16.8002V8V7.2002C4 6.08009 4 5.51962 4.21799 5.0918C4.40973 4.71547 4.71547 4.40973 5.0918 4.21799C5.51962 4 6.08009 4 7.2002 4Z" fill="#B0B8C1"/>
<path d="M4 8H20M4 8V16.8002C4 17.9203 4 18.4801 4.21799 18.9079C4.40973 19.2842 4.71547 19.5905 5.0918 19.7822C5.5192 20 6.07899 20 7.19691 20H16.8031C17.921 20 18.48 20 18.9074 19.7822C19.2837 19.5905 19.5905 19.2842 19.7822 18.9079C20 18.4805 20 17.9215 20 16.8036V8M4 8V7.2002C4 6.08009 4 5.51962 4.21799 5.0918C4.40973 4.71547 4.71547 4.40973 5.0918 4.21799C5.51962 4 6.08009 4 7.2002 4H8M20 8V7.19691C20 6.07899 20 5.5192 19.7822 5.0918C19.5905 4.71547 19.2837 4.40973 18.9074 4.21799C18.4796 4 17.9203 4 16.8002 4H16M8 4H16M8 4V2M16 4V2M14.5 14H9.5" stroke="#B0B8C1" stroke-width="2" stroke-linecap="round" stroke-linejoin="round"/>
<path d="M14.5 14H9.5" stroke="white" stroke-width="2" stroke-linecap="round" stroke-linejoin="round"/>
<path d="M5 7C5 5.89543 5.89543 5 7 5H17C18.1046 5 19 5.89543 19 7C19 7.55228 18.5523 8 18 8H6C5.44772 8 5 7.55228 5 7Z" fill="white"/>
</symbol><symbol id="caretdown" viewBox="0 0 24 24">
<path fill-rule="evenodd" clip-rule="evenodd" d="M7.29289 9.29289C7.68342 8.90237 8.31658 8.90237 8.70711 9.29289L12 12.5858L15.2929 9.29289C15.6834 8.90237 16.3166 8.90237 16.7071 9.29289C17.0976 9.68342 17.0976 10.3166 16.7071 10.7071L12.7071 14.7071C12.3166 15.0976 11.6834 15.0976 11.2929 14.7071L7.29289 10.7071C6.90237 10.3166 6.90237 9.68342 7.29289 9.29289Z" fill="#6A737E"/>
</symbol><symbol id="chat" viewBox="0 0 24 24">
<path d="M5.59961 19.9203L7.12357 18.7012L7.13478 18.6926C7.45249 18.4384 7.61281 18.3101 7.79168 18.2188C7.95216 18.1368 8.12328 18.0771 8.2998 18.0408C8.49877 18 8.70603 18 9.12207 18H17.8031C18.921 18 19.4806 18 19.908 17.7822C20.2843 17.5905 20.5905 17.2842 20.7822 16.9079C21 16.4805 21 15.9215 21 14.8036V7.19691C21 6.07899 21 5.5192 20.7822 5.0918C20.5905 4.71547 20.2837 4.40973 19.9074 4.21799C19.4796 4 18.9203 4 17.8002 4H6.2002C5.08009 4 4.51962 4 4.0918 4.21799C3.71547 4.40973 3.40973 4.71547 3.21799 5.0918C3 5.51962 3 6.08009 3 7.2002V18.6712C3 19.7369 3 20.2696 3.21846 20.5433C3.40845 20.7813 3.69644 20.9198 4.00098 20.9195C4.35115 20.9191 4.76744 20.5861 5.59961 19.9203Z" fill="#B0B8C1"/>
<path d="M9 11H15M7.12357 18.7012L5.59961 19.9203C4.76744 20.5861 4.35115 20.9191 4.00098 20.9195C3.69644 20.9198 3.40845 20.7813 3.21846 20.5433C3 20.2696 3 19.7369 3 18.6712V7.2002C3 6.08009 3 5.51962 3.21799 5.0918C3.40973 4.71547 3.71547 4.40973 4.0918 4.21799C4.51962 4 5.08009 4 6.2002 4H17.8002C18.9203 4 19.4796 4 19.9074 4.21799C20.2837 4.40973 20.5905 4.71547 20.7822 5.0918C21 5.5192 21 6.07899 21 7.19691V14.8036C21 15.9215 21 16.4805 20.7822 16.9079C20.5905 17.2842 20.2843 17.5905 19.908 17.7822C19.4806 18 18.921 18 17.8031 18H9.12207C8.70603 18 8.49877 18 8.2998 18.0408C8.12328 18.0771 7.95216 18.1368 7.79168 18.2188C7.61281 18.3101 7.45249 18.4384 7.13478 18.6926L7.12357 18.7012Z" stroke="#B0B8C1" stroke-width="2" stroke-linecap="round" stroke-linejoin="round"/>
<path d="M9 11H15" stroke="white" stroke-width="2" stroke-linecap="round" stroke-linejoin="round"/>
</symbol><symbol id="check-active" viewBox="0 0 24 24">
<circle cx="12" cy="12" r="12" fill="#5568F9"/>
<g clip-path="url(#clip0_366_12295)">
<path d="M17.6484 9.68465L11.318 16.0146C10.8492 16.4835 10.0888 16.4835 9.61956 16.0146L6.35173 12.7466C5.88276 12.2778 5.88276 11.5172 6.35173 11.0483C6.82078 10.5792 7.58116 10.5792 8.04999 11.0481L10.469 13.4671L15.95 7.98618C16.419 7.51713 17.1795 7.51748 17.6483 7.98618C18.1171 8.45516 18.1171 9.21539 17.6484 9.68465Z" fill="white"/>
</g>

</symbol><symbol id="check-error" viewBox="0 0 24 24">
<circle cx="12" cy="12" r="11.3296" fill="#D1D6DC" stroke="#FF5353" stroke-width="1.34074"/>
<g clip-path="url(#clip0_476_11804)">
<path d="M17.6484 9.6844L11.318 16.0144C10.8492 16.4832 10.0888 16.4832 9.61956 16.0144L6.35173 12.7464C5.88276 12.2775 5.88276 11.517 6.35173 11.048C6.82078 10.579 7.58116 10.579 8.04999 11.0478L10.469 13.4669L15.95 7.98593C16.419 7.51688 17.1795 7.51724 17.6483 7.98593C18.1171 8.45491 18.1171 9.21514 17.6484 9.6844Z" fill="white"/>
</g>

</symbol><symbol id="check-hover" viewBox="0 0 32 32">
<circle cx="16" cy="16" r="16" fill="#1C1A42" fill-opacity="0.04"/>
<circle cx="16" cy="16" r="12" fill="#D1D6DC"/>
<g clip-path="url(#clip0_286_7160)">
<path d="M21.6484 13.6846L15.318 20.0146C14.8492 20.4835 14.0888 20.4835 13.6196 20.0146L10.3517 16.7466C9.88276 16.2778 9.88276 15.5172 10.3517 15.0483C10.8208 14.5792 11.5812 14.5792 12.05 15.0481L14.469 17.4671L19.95 11.9862C20.419 11.5171 21.1795 11.5175 21.6483 11.9862C22.1171 12.4552 22.1171 13.2154 21.6484 13.6846Z" fill="white"/>
</g>

</symbol><symbol id="check-info" viewBox="0 0 60 60">
<circle cx="30" cy="30" r="28.5" stroke="url(#paint0_linear_214_5469)" stroke-width="3"/>
<g clip-path="url(#clip0_214_5469)">
<path d="M19.5 30L27 37.5L42 22.5" stroke="url(#paint1_linear_214_5469)" stroke-width="4" stroke-linecap="round" stroke-linejoin="round"/>
</g>

</symbol><symbol id="check" viewBox="0 0 24 24">
<circle cx="12" cy="12" r="12" fill="#D1D6DC"/>
<g clip-path="url(#clip0_300_6282)">
<path d="M17.6484 9.6844L11.318 16.0144C10.8492 16.4832 10.0888 16.4832 9.61956 16.0144L6.35173 12.7464C5.88276 12.2775 5.88276 11.517 6.35173 11.048C6.82078 10.579 7.58116 10.579 8.04999 11.0478L10.469 13.4669L15.95 7.98593C16.419 7.51688 17.1795 7.51724 17.6483 7.98593C18.1171 8.45491 18.1171 9.21514 17.6484 9.6844Z" fill="white"/>
</g>

</symbol><symbol id="chevrondown" viewBox="0 0 24 24">
<path fill-rule="evenodd" clip-rule="evenodd" d="M7.29289 9.29289C7.68342 8.90237 8.31658 8.90237 8.70711 9.29289L12 12.5858L15.2929 9.29289C15.6834 8.90237 16.3166 8.90237 16.7071 9.29289C17.0976 9.68342 17.0976 10.3166 16.7071 10.7071L12.7071 14.7071C12.3166 15.0976 11.6834 15.0976 11.2929 14.7071L7.29289 10.7071C6.90237 10.3166 6.90237 9.68342 7.29289 9.29289Z" fill="#4E5968"/>
</symbol><symbol id="chevronleft-disable" viewBox="0 0 36 36">
<g opacity="0.3">
<path d="M21 25L14 18L21 11" stroke="#4E5968" stroke-width="2" stroke-linecap="round" stroke-linejoin="round"/>
</g>
</symbol><symbol id="chevronleft-hover" viewBox="0 0 36 36">
<rect width="36" height="36" rx="8" fill="#1C1A42" fill-opacity="0.04"/>
<path d="M21 25L14 18L21 11" stroke="#4E5968" stroke-width="2" stroke-linecap="round" stroke-linejoin="round"/>
</symbol><symbol id="chevronleft" viewBox="0 0 36 36">
<path d="M21 25L14 18L21 11" stroke="#4E5968" stroke-width="2" stroke-linecap="round" stroke-linejoin="round"/>
</symbol><symbol id="chevronright-disable" viewBox="0 0 36 36">
<g opacity="0.3">
<path d="M14 11L21 18L14 25" stroke="#4E5968" stroke-width="2" stroke-linecap="round" stroke-linejoin="round"/>
</g>
</symbol><symbol id="chevronright-hover" viewBox="0 0 36 36">
<rect width="36" height="36" rx="8" fill="#1C1A42" fill-opacity="0.04"/>
<path d="M14 11L21 18L14 25" stroke="#4E5968" stroke-width="2" stroke-linecap="round" stroke-linejoin="round"/>
</symbol><symbol id="chevronright" viewBox="0 0 36 36">
<path d="M14 11L21 18L14 25" stroke="#4E5968" stroke-width="2" stroke-linecap="round" stroke-linejoin="round"/>
</symbol><symbol id="clear" viewBox="0 0 24 24">
<path d="M3 12C3 16.9706 7.02944 21 12 21C16.9706 21 21 16.9706 21 12C21 7.02944 16.9706 3 12 3C7.02944 3 3 7.02944 3 12Z" fill="#D1D6DC"/>
<path d="M9 9L11.9999 11.9999M11.9999 11.9999L14.9999 14.9999M11.9999 11.9999L9 14.9999M11.9999 11.9999L14.9999 9M12 21C7.02944 21 3 16.9706 3 12C3 7.02944 7.02944 3 12 3C16.9706 3 21 7.02944 21 12C21 16.9706 16.9706 21 12 21Z" stroke="#D1D6DC" stroke-width="2" stroke-linecap="round" stroke-linejoin="round"/>
<path d="M9 9L11.9999 11.9999M11.9999 11.9999L14.9999 14.9999M11.9999 11.9999L9 14.9999M11.9999 11.9999L14.9999 9" stroke="white" stroke-width="2" stroke-linecap="round" stroke-linejoin="round"/>
</symbol><symbol id="close-hover" viewBox="0 0 36 36">
<rect width="36" height="36" rx="8" fill="#1C1A42" fill-opacity="0.04"/>
<path d="M24 24L18 18M18 18L12 12M18 18L24 12M18 18L12 24" stroke="#4E5968" stroke-width="2" stroke-linecap="round" stroke-linejoin="round"/>
</symbol><symbol id="close" viewBox="0 0 36 36">
<path d="M24 24L18 18M18 18L12 12M18 18L24 12M18 18L12 24" stroke="#4E5968" stroke-width="2" stroke-linecap="round" stroke-linejoin="round"/>
</symbol><symbol id="copy-hover" viewBox="0 0 36 36">
<path d="M15 15V12.2002C15 11.0801 15 10.5196 15.218 10.0918C15.4097 9.71547 15.7155 9.40973 16.0918 9.21799C16.5196 9 17.0801 9 18.2002 9H23.8002C24.9203 9 25.4801 9 25.9079 9.21799C26.2842 9.40973 26.5905 9.71547 26.7822 10.0918C27.0002 10.5196 27.0002 11.0797 27.0002 12.1998V17.7998C27.0002 18.9199 27.0002 19.48 26.7822 19.9078C26.5905 20.2841 26.2839 20.5905 25.9076 20.7822C25.4802 21 24.921 21 23.8031 21H21M15 15H12.2002C11.0801 15 10.5196 15 10.0918 15.218C9.71547 15.4097 9.40973 15.7155 9.21799 16.0918C9 16.5196 9 17.0801 9 18.2002V23.8002C9 24.9203 9 25.4801 9.21799 25.9079C9.40973 26.2842 9.71547 26.5905 10.0918 26.7822C10.5192 27 11.079 27 12.1969 27H17.8036C18.9215 27 19.4805 27 19.9079 26.7822C20.2842 26.5905 20.5905 26.2839 20.7822 25.9076C21 25.4802 21 24.921 21 23.8031V21M15 15H17.8002C18.9203 15 19.4801 15 19.9079 15.218C20.2842 15.4097 20.5905 15.7155 20.7822 16.0918C21 16.5192 21 17.079 21 18.1969L21 21" stroke="#4E5968" stroke-width="2" stroke-linecap="round" stroke-linejoin="round"/>
<rect width="36" height="36" rx="8" fill="#1C1A42" fill-opacity="0.04"/>
</symbol><symbol id="copy" viewBox="0 0 36 36">
<path d="M15 15V12.2002C15 11.0801 15 10.5196 15.218 10.0918C15.4097 9.71547 15.7155 9.40973 16.0918 9.21799C16.5196 9 17.0801 9 18.2002 9H23.8002C24.9203 9 25.4801 9 25.9079 9.21799C26.2842 9.40973 26.5905 9.71547 26.7822 10.0918C27.0002 10.5196 27.0002 11.0797 27.0002 12.1998V17.7998C27.0002 18.9199 27.0002 19.48 26.7822 19.9078C26.5905 20.2841 26.2839 20.5905 25.9076 20.7822C25.4802 21 24.921 21 23.8031 21H21M15 15H12.2002C11.0801 15 10.5196 15 10.0918 15.218C9.71547 15.4097 9.40973 15.7155 9.21799 16.0918C9 16.5196 9 17.0801 9 18.2002V23.8002C9 24.9203 9 25.4801 9.21799 25.9079C9.40973 26.2842 9.71547 26.5905 10.0918 26.7822C10.5192 27 11.079 27 12.1969 27H17.8036C18.9215 27 19.4805 27 19.9079 26.7822C20.2842 26.5905 20.5905 26.2839 20.7822 25.9076C21 25.4802 21 24.921 21 23.8031V21M15 15H17.8002C18.9203 15 19.4801 15 19.9079 15.218C20.2842 15.4097 20.5905 15.7155 20.7822 16.0918C21 16.5192 21 17.079 21 18.1969L21 21" stroke="#4E5968" stroke-width="2" stroke-linecap="round" stroke-linejoin="round"/>
</symbol><symbol id="crown" viewBox="0 0 12 12">
<path fill-rule="evenodd" clip-rule="evenodd" d="M2.0955 10.3955C2.0955 10.5281 2.14818 10.6553 2.24195 10.7491C2.33571 10.8428 2.46289 10.8955 2.5955 10.8955H9.404C9.53661 10.8955 9.66379 10.8428 9.75755 10.7491C9.85132 10.6553 9.904 10.5281 9.904 10.3955V9.7705H2.0955V10.3955ZM9.9805 4.7225L8.0555 5.7175L6.4385 3.23C6.39098 3.15685 6.32592 3.09673 6.24926 3.05511C6.17259 3.01349 6.08674 2.99169 5.9995 2.99169C5.91226 2.99169 5.82641 3.01349 5.74974 3.05511C5.67307 3.09673 5.60802 3.15685 5.5605 3.23L3.9435 5.7175L2.0185 4.7225C1.93078 4.67723 1.83206 4.65767 1.7337 4.66605C1.63535 4.67443 1.54136 4.71043 1.46257 4.76989C1.38377 4.82935 1.32338 4.90986 1.28834 5.00214C1.25329 5.09442 1.24503 5.19473 1.2645 5.2915L2.0195 9.0205H9.9795L10.7345 5.2915C10.822 4.8605 10.371 4.5205 9.9805 4.7225ZM5.9995 2.57C6.20769 2.57 6.40736 2.48729 6.55458 2.34008C6.70179 2.19286 6.7845 1.9932 6.7845 1.785C6.7845 1.57681 6.70179 1.37714 6.55458 1.22992C6.40736 1.08271 6.20769 1 5.9995 1C5.79131 1 5.59164 1.08271 5.44442 1.22992C5.2972 1.37714 5.2145 1.57681 5.2145 1.785C5.2145 1.9932 5.2972 2.19286 5.44442 2.34008C5.59164 2.48729 5.79131 2.57 5.9995 2.57ZM11.2145 2.992C11.0063 2.992 10.8066 3.07471 10.6594 3.22192C10.5122 3.36914 10.4295 3.5688 10.4295 3.777C10.4295 3.98519 10.5122 4.18486 10.6594 4.33208C10.8066 4.47929 11.0063 4.562 11.2145 4.562C11.4227 4.562 11.6224 4.47929 11.7696 4.33208C11.9168 4.18486 11.9995 3.98519 11.9995 3.777C11.9995 3.5688 11.9168 3.36914 11.7696 3.22192C11.6224 3.07471 11.4227 2.992 11.2145 2.992ZM1.57 3.777C1.57 3.5688 1.48729 3.36914 1.34008 3.22192C1.19286 3.07471 0.993195 2.992 0.785 2.992C0.576805 2.992 0.377137 3.07471 0.229921 3.22192C0.0827051 3.36914 0 3.5688 0 3.777C0 3.98519 0.0827051 4.18486 0.229921 4.33208C0.377137 4.47929 0.576805 4.562 0.785 4.562C0.993195 4.562 1.19286 4.47929 1.34008 4.33208C1.48729 4.18486 1.57 3.98519 1.57 3.777Z" fill="#4E5968"/>
</symbol><symbol id="dot-hover" viewBox="0 0 36 36">
<rect width="36" height="36" rx="8" fill="#1C1A42" fill-opacity="0.04"/>
<path fill-rule="evenodd" clip-rule="evenodd" d="M16.001 11.23C16.001 10.9673 16.0528 10.7071 16.1534 10.4645C16.254 10.2218 16.4014 10.0013 16.5872 9.81556C16.773 9.62984 16.9936 9.48254 17.2364 9.38207C17.4791 9.28159 17.7392 9.22991 18.002 9.22998C18.2647 9.23005 18.5248 9.28186 18.7675 9.38245C19.0102 9.48305 19.2307 9.63046 19.4164 9.81627C19.6021 10.0021 19.7494 10.2226 19.8499 10.4654C19.9503 10.7081 20.002 10.9683 20.002 11.231C20.0018 11.7615 19.7909 12.2703 19.4157 12.6454C19.0404 13.0205 18.5315 13.2311 18.001 13.231C17.4704 13.2308 16.9616 13.02 16.5865 12.6447C16.2115 12.2694 16.0008 11.7605 16.001 11.23M16.001 18.001C16.001 17.4705 16.2117 16.9618 16.5867 16.5868C16.9618 16.2117 17.4705 16.001 18.001 16.001C18.5314 16.001 19.0401 16.2117 19.4152 16.5868C19.7902 16.9618 20.001 17.4705 20.001 18.001C20.001 18.5314 19.7902 19.0401 19.4152 19.4152C19.0401 19.7903 18.5314 20.001 18.001 20.001C17.4705 20.001 16.9618 19.7903 16.5867 19.4152C16.2117 19.0401 16.001 18.5314 16.001 18.001ZM16.001 24.771C16.001 24.5083 16.0528 24.2481 16.1534 24.0055C16.254 23.7628 16.4014 23.5423 16.5872 23.3566C16.773 23.1708 16.9936 23.0235 17.2364 22.9231C17.4791 22.8226 17.7392 22.7709 18.002 22.771C18.2647 22.771 18.5248 22.8229 18.7675 22.9235C19.0102 23.024 19.2307 23.1715 19.4164 23.3573C19.6021 23.5431 19.7494 23.7636 19.8499 24.0064C19.9503 24.2491 20.002 24.5093 20.002 24.772C20.0018 25.3025 19.7909 25.8113 19.4157 26.1864C19.0404 26.5615 18.5315 26.7721 18.001 26.772C17.4704 26.7718 16.9616 26.561 16.5865 26.1857C16.2115 25.8104 16.0008 25.3015 16.001 24.771" fill="#4E5968"/>
</symbol><symbol id="dot" viewBox="0 0 36 36">
<path fill-rule="evenodd" clip-rule="evenodd" d="M16.001 11.23C16.001 10.9673 16.0528 10.7071 16.1534 10.4645C16.254 10.2218 16.4014 10.0013 16.5872 9.81556C16.773 9.62984 16.9936 9.48254 17.2364 9.38207C17.4791 9.28159 17.7392 9.22991 18.002 9.22998C18.2647 9.23005 18.5248 9.28186 18.7675 9.38245C19.0102 9.48305 19.2307 9.63046 19.4164 9.81627C19.6021 10.0021 19.7494 10.2226 19.8499 10.4654C19.9503 10.7081 20.002 10.9683 20.002 11.231C20.0018 11.7615 19.7909 12.2703 19.4157 12.6454C19.0404 13.0205 18.5315 13.2311 18.001 13.231C17.4704 13.2308 16.9616 13.02 16.5865 12.6447C16.2115 12.2694 16.0008 11.7605 16.001 11.23ZM16.001 18.001C16.001 17.4705 16.2117 16.9618 16.5867 16.5868C16.9618 16.2117 17.4705 16.001 18.001 16.001C18.5314 16.001 19.0401 16.2117 19.4152 16.5868C19.7902 16.9618 20.001 17.4705 20.001 18.001C20.001 18.5314 19.7902 19.0401 19.4152 19.4152C19.0401 19.7903 18.5314 20.001 18.001 20.001C17.4705 20.001 16.9618 19.7903 16.5867 19.4152C16.2117 19.0401 16.001 18.5314 16.001 18.001ZM16.001 24.771C16.001 24.5083 16.0528 24.2481 16.1534 24.0055C16.254 23.7628 16.4014 23.5423 16.5872 23.3566C16.773 23.1708 16.9936 23.0235 17.2364 22.9231C17.4791 22.8226 17.7392 22.7709 18.002 22.771C18.2647 22.771 18.5248 22.8229 18.7675 22.9235C19.0102 23.024 19.2307 23.1715 19.4164 23.3573C19.6021 23.5431 19.7494 23.7636 19.8499 24.0064C19.9503 24.2491 20.002 24.5093 20.002 24.772C20.0018 25.3025 19.7909 25.8113 19.4157 26.1864C19.0404 26.5615 18.5315 26.7721 18.001 26.772C17.4704 26.7718 16.9616 26.561 16.5865 26.1857C16.2115 25.8104 16.0008 25.3015 16.001 24.771Z" fill="#4E5968"/>
</symbol><symbol id="info" viewBox="0 0 40 40">
<path d="M16.666 15C16.666 16.8409 18.1584 18.3333 19.9993 18.3333C21.8403 18.3333 23.3327 16.8409 23.3327 15C23.3327 13.159 21.8403 11.6666 19.9993 11.6666C18.1584 11.6666 16.666 13.159 16.666 15Z" fill="white" stroke="white" stroke-width="2" stroke-linecap="round" stroke-linejoin="round"/>
<path d="M7 20C7 27.1797 12.8203 33 20 33C27.1797 33 33 27.1797 33 20C33 12.8203 27.1797 7 20 7C12.8203 7 7 12.8203 7 20Z" fill="#B0B8C1"/>
<path d="M20 14.8725V20.6503M20 33C12.8203 33 7 27.1797 7 20C7 12.8203 12.8203 7 20 7C27.1797 7 33 12.8203 33 20C33 27.1797 27.1797 33 20 33ZM20.0719 24.9836V25.1281L19.9281 25.1275V24.9836H20.0719Z" stroke="#B0B8C1" stroke-width="2.88889" stroke-linecap="round" stroke-linejoin="round"/>
<path d="M20 24.8842V25.0266M20 14.9155V20.6119" stroke="white" stroke-width="2.88889" stroke-linecap="round" stroke-linejoin="round"/>
</symbol><symbol id="link-hover" viewBox="0 0 44 44">
<rect width="44" height="44" rx="12" fill="#E5E8EB"/>
<path d="M21.4652 16.6938L23.3215 14.8376C24.1074 14.1212 25.1391 13.7353 26.2022 13.7599C27.2653 13.7845 28.278 14.2178 29.03 14.9697C29.7819 15.7216 30.2152 16.7344 30.2398 17.7975C30.2644 18.8606 29.8784 19.8923 29.1621 20.6782L26.509 23.3219C26.1266 23.7057 25.6722 24.0103 25.1719 24.2181C24.6716 24.4259 24.1351 24.5328 23.5934 24.5328C23.0516 24.5328 22.5152 24.4259 22.0148 24.2181C21.5145 24.0103 21.0601 23.7057 20.6777 23.3219" stroke="#4E5968" stroke-width="2" stroke-linecap="round" stroke-linejoin="round"/>
<path d="M22.5335 27.3063L20.6772 29.1625C19.8913 29.8789 18.8596 30.2648 17.7965 30.2402C16.7334 30.2156 15.7207 29.7823 14.9687 29.0304C14.2168 28.2785 13.7835 27.2657 13.7589 26.2026C13.7343 25.1395 14.1203 24.1078 14.8366 23.3219L17.4897 20.6782C17.8721 20.2944 18.3265 19.9898 18.8268 19.782C19.3271 19.5743 19.8636 19.4673 20.4053 19.4673C20.9471 19.4673 21.4835 19.5743 21.9839 19.782C22.4842 19.9898 22.9386 20.2944 23.321 20.6782" stroke="#4E5968" stroke-width="2" stroke-linecap="round" stroke-linejoin="round"/>
</symbol><symbol id="link" viewBox="0 0 44 44">
<rect width="44" height="44" rx="12" fill="#F2F4F6"/>
<path d="M21.4652 16.6938L23.3215 14.8376C24.1074 14.1212 25.1391 13.7353 26.2022 13.7599C27.2653 13.7845 28.278 14.2178 29.03 14.9697C29.7819 15.7216 30.2152 16.7344 30.2398 17.7975C30.2644 18.8606 29.8784 19.8923 29.1621 20.6782L26.509 23.3219C26.1266 23.7057 25.6722 24.0103 25.1719 24.2181C24.6716 24.4259 24.1351 24.5328 23.5934 24.5328C23.0516 24.5328 22.5152 24.4259 22.0148 24.2181C21.5145 24.0103 21.0601 23.7057 20.6777 23.3219" stroke="#4E5968" stroke-width="2" stroke-linecap="round" stroke-linejoin="round"/>
<path d="M22.5335 27.3063L20.6772 29.1625C19.8913 29.8789 18.8596 30.2648 17.7965 30.2402C16.7334 30.2156 15.7207 29.7823 14.9687 29.0304C14.2168 28.2785 13.7835 27.2657 13.7589 26.2026C13.7343 25.1395 14.1203 24.1078 14.8366 23.3219L17.4897 20.6782C17.8721 20.2944 18.3265 19.9898 18.8268 19.782C19.3271 19.5743 19.8636 19.4673 20.4053 19.4673C20.9471 19.4673 21.4835 19.5743 21.9839 19.782C22.4842 19.9898 22.9386 20.2944 23.321 20.6782" stroke="#4E5968" stroke-width="2" stroke-linecap="round" stroke-linejoin="round"/>
</symbol><symbol id="map" viewBox="0 0 24 24">
<path d="M5 9.92285C5 14.7747 9.24448 18.7869 11.1232 20.3252C11.3921 20.5454 11.5281 20.6568 11.7287 20.7132C11.8849 20.7572 12.1148 20.7572 12.271 20.7132C12.472 20.6567 12.6071 20.5463 12.877 20.3254C14.7557 18.7871 18.9999 14.7751 18.9999 9.9233C18.9999 8.08718 18.2625 6.32605 16.9497 5.02772C15.637 3.72939 13.8566 3 12.0001 3C10.1436 3 8.36301 3.7295 7.05025 5.02783C5.7375 6.32616 5 8.08674 5 9.92285Z" fill="#B0B8C1"/>
<path d="M10 9C10 10.1046 10.8954 11 12 11C13.1046 11 14 10.1046 14 9C14 7.89543 13.1046 7 12 7C10.8954 7 10 7.89543 10 9Z" fill="#B0B8C1"/>
<path d="M5 9.92285C5 14.7747 9.24448 18.7869 11.1232 20.3252C11.3921 20.5454 11.5281 20.6568 11.7287 20.7132C11.8849 20.7572 12.1148 20.7572 12.271 20.7132C12.472 20.6567 12.6071 20.5463 12.877 20.3254C14.7557 18.7871 18.9999 14.7751 18.9999 9.9233C18.9999 8.08718 18.2625 6.32605 16.9497 5.02772C15.637 3.72939 13.8566 3 12.0001 3C10.1436 3 8.36301 3.7295 7.05025 5.02783C5.7375 6.32616 5 8.08674 5 9.92285Z" stroke="#B0B8C1" stroke-width="2" stroke-linecap="round" stroke-linejoin="round"/>
<path d="M10 9C10 10.1046 10.8954 11 12 11C13.1046 11 14 10.1046 14 9C14 7.89543 13.1046 7 12 7C10.8954 7 10 7.89543 10 9Z" stroke="#B0B8C1" stroke-width="2" stroke-linecap="round" stroke-linejoin="round"/>
<path d="M10 9C10 10.1046 10.8954 11 12 11C13.1046 11 14 10.1046 14 9C14 7.89543 13.1046 7 12 7C10.8954 7 10 7.89543 10 9Z" fill="white" stroke="white" stroke-width="2" stroke-linecap="round" stroke-linejoin="round"/>
</symbol><symbol id="marker" viewBox="0 0 74 82">
<g filter="url(#filter0_d_1072_16008)">
<path d="M23 22.8457C23 32.5493 31.489 40.5739 35.2464 43.6504C35.7841 44.0907 36.0562 44.3135 36.4574 44.4265C36.7698 44.5144 37.2296 44.5144 37.542 44.4265C37.9439 44.3133 38.2141 44.0927 38.7539 43.6507C42.5113 40.5742 50.9998 32.5502 50.9998 22.8466C50.9998 19.1744 49.5249 15.6521 46.8994 13.0554C44.2739 10.4588 40.7132 9 37.0002 9C33.2871 9 29.726 10.459 27.1005 13.0557C24.475 15.6523 23 19.1735 23 22.8457Z" fill="#5568F9"/>
<path d="M33 21C33 23.2091 34.7909 25 37 25C39.2091 25 41 23.2091 41 21C41 18.7909 39.2091 17 37 17C34.7909 17 33 18.7909 33 21Z" fill="#5568F9"/>
<path d="M23 22.8457C23 32.5493 31.489 40.5739 35.2464 43.6504C35.7841 44.0907 36.0562 44.3135 36.4574 44.4265C36.7698 44.5144 37.2296 44.5144 37.542 44.4265C37.9439 44.3133 38.2141 44.0927 38.7539 43.6507C42.5113 40.5742 50.9998 32.5502 50.9998 22.8466C50.9998 19.1744 49.5249 15.6521 46.8994 13.0554C44.2739 10.4588 40.7132 9 37.0002 9C33.2871 9 29.726 10.459 27.1005 13.0557C24.475 15.6523 23 19.1735 23 22.8457Z" stroke="#5568F9" stroke-width="4" stroke-linecap="round" stroke-linejoin="round"/>
<path d="M33 21C33 23.2091 34.7909 25 37 25C39.2091 25 41 23.2091 41 21C41 18.7909 39.2091 17 37 17C34.7909 17 33 18.7909 33 21Z" stroke="#5568F9" stroke-width="4" stroke-linecap="round" stroke-linejoin="round"/>
<path d="M33 21C33 23.2091 34.7909 25 37 25C39.2091 25 41 23.2091 41 21C41 18.7909 39.2091 17 37 17C34.7909 17 33 18.7909 33 21Z" fill="white" stroke="white" stroke-width="4" stroke-linecap="round" stroke-linejoin="round"/>
</g>

</symbol><symbol id="minus-disable" viewBox="0 0 36 36">
<g opacity="0.3">
<path d="M4.5 17.5C4.5 24.9558 10.5442 31 18 31C25.4558 31 31.5 24.9558 31.5 17.5C31.5 10.0442 25.4558 4 18 4C10.5442 4 4.5 10.0442 4.5 17.5Z" fill="#5568F9"/>
<path d="M12 17.5H24M18 31C10.5442 31 4.5 24.9558 4.5 17.5C4.5 10.0442 10.5442 4 18 4C25.4558 4 31.5 10.0442 31.5 17.5C31.5 24.9558 25.4558 31 18 31Z" stroke="#5568F9" stroke-width="2" stroke-linecap="round" stroke-linejoin="round"/>
<path d="M12 18H24" stroke="white" stroke-width="2.5" stroke-linecap="round" stroke-linejoin="round"/>
</g>
</symbol><symbol id="minus-hover" viewBox="0 0 36 36">
<circle cx="18" cy="18" r="12" fill="#1C1A42" fill-opacity="0.08"/>
<path d="M4.5 18C4.5 25.4558 10.5442 31.5 18 31.5C25.4558 31.5 31.5 25.4558 31.5 18C31.5 10.5442 25.4558 4.5 18 4.5C10.5442 4.5 4.5 10.5442 4.5 18Z" fill="#5568F9"/>
<path d="M12 18H24M18 31.5C10.5442 31.5 4.5 25.4558 4.5 18C4.5 10.5442 10.5442 4.5 18 4.5C25.4558 4.5 31.5 10.5442 31.5 18C31.5 25.4558 25.4558 31.5 18 31.5Z" stroke="#5568F9" stroke-width="2" stroke-linecap="round" stroke-linejoin="round"/>
<path d="M12 18H24" stroke="white" stroke-width="2.5" stroke-linecap="round" stroke-linejoin="round"/>
</symbol><symbol id="minus" viewBox="0 0 36 36">
<path d="M4.5 18C4.5 25.4558 10.5442 31.5 18 31.5C25.4558 31.5 31.5 25.4558 31.5 18C31.5 10.5442 25.4558 4.5 18 4.5C10.5442 4.5 4.5 10.5442 4.5 18Z" fill="#5568F9"/>
<path d="M12 18H24M18 31.5C10.5442 31.5 4.5 25.4558 4.5 18C4.5 10.5442 10.5442 4.5 18 4.5C25.4558 4.5 31.5 10.5442 31.5 18C31.5 25.4558 25.4558 31.5 18 31.5Z" stroke="#5568F9" stroke-width="2" stroke-linecap="round" stroke-linejoin="round"/>
<path d="M12 18H24" stroke="white" stroke-width="2.5" stroke-linecap="round" stroke-linejoin="round"/>
</symbol><symbol id="plus-hover" viewBox="0 0 36 36">
<g clip-path="url(#clip0_239_7080)">
<circle cx="18" cy="18" r="18" fill="#1C1A42" fill-opacity="0.04"/>
<path d="M4.5 18C4.5 25.4558 10.5442 31.5 18 31.5C25.4558 31.5 31.5 25.4558 31.5 18C31.5 10.5442 25.4558 4.5 18 4.5C10.5442 4.5 4.5 10.5442 4.5 18Z" fill="#5568F9"/>
<path d="M12 18H18M18 18H24M18 18V24M18 18V12M18 31.5C10.5442 31.5 4.5 25.4558 4.5 18C4.5 10.5442 10.5442 4.5 18 4.5C25.4558 4.5 31.5 10.5442 31.5 18C31.5 25.4558 25.4558 31.5 18 31.5Z" stroke="#5568F9" stroke-width="2" stroke-linecap="round" stroke-linejoin="round"/>
<path d="M12 18H18M18 18H24M18 18V24M18 18V12" stroke="white" stroke-width="2.5" stroke-linecap="round" stroke-linejoin="round"/>
</g>

</symbol><symbol id="plus" viewBox="0 0 36 36">
<path d="M4.5 18C4.5 25.4558 10.5442 31.5 18 31.5C25.4558 31.5 31.5 25.4558 31.5 18C31.5 10.5442 25.4558 4.5 18 4.5C10.5442 4.5 4.5 10.5442 4.5 18Z" fill="#5568F9"/>
<path d="M12 18H18M18 18H24M18 18V24M18 18V12M18 31.5C10.5442 31.5 4.5 25.4558 4.5 18C4.5 10.5442 10.5442 4.5 18 4.5C25.4558 4.5 31.5 10.5442 31.5 18C31.5 25.4558 25.4558 31.5 18 31.5Z" stroke="#5568F9" stroke-width="2" stroke-linecap="round" stroke-linejoin="round"/>
<path d="M12 18H18M18 18H24M18 18V24M18 18V12" stroke="white" stroke-width="2.5" stroke-linecap="round" stroke-linejoin="round"/>
</symbol><symbol id="search-disable" viewBox="0 0 36 36">
<path d="M17 23.9999C20.8659 23.9999 23.9999 20.8659 23.9999 17C23.9999 13.134 20.8659 10 17 10C13.134 10 10 13.134 10 17C10 20.8659 13.134 23.9999 17 23.9999Z" stroke="#B0B8C1" stroke-width="2" stroke-linecap="round" stroke-linejoin="round"/>
<path d="M21.9512 21.9501L26.0012 26.0001" stroke="#B0B8C1" stroke-width="2" stroke-linecap="round" stroke-linejoin="round"/>
</symbol><symbol id="search-hover" viewBox="0 0 36 36">
<path d="M17 23.9999C20.8659 23.9999 23.9999 20.8659 23.9999 17C23.9999 13.134 20.8659 10 17 10C13.134 10 10 13.134 10 17C10 20.8659 13.134 23.9999 17 23.9999Z" stroke="#4E5968" stroke-width="2" stroke-linecap="round" stroke-linejoin="round"/>
<path d="M21.9512 21.9501L26.0012 26.0001" stroke="#4E5968" stroke-width="2" stroke-linecap="round" stroke-linejoin="round"/>
<rect width="36" height="36" rx="8" fill="#1C1A42" fill-opacity="0.04"/>
</symbol><symbol id="search" viewBox="0 0 36 36">
<path d="M17 23.9999C20.8659 23.9999 23.9999 20.8659 23.9999 17C23.9999 13.134 20.8659 10 17 10C13.134 10 10 13.134 10 17C10 20.8659 13.134 23.9999 17 23.9999Z" stroke="#4E5968" stroke-width="2" stroke-linecap="round" stroke-linejoin="round"/>
<path d="M21.9512 21.9501L26.0012 26.0001" stroke="#4E5968" stroke-width="2" stroke-linecap="round" stroke-linejoin="round"/>
</symbol></svg>