<svg width="24" height="24" viewBox="0 0 24 24" fill="none" xmlns="http://www.w3.org/2000/svg">
<path d="M7.2002 4H8H16H16.8002C17.9203 4 18.4796 4 18.9074 4.21799C19.2837 4.40973 19.5905 4.71547 19.7822 5.0918C20 5.5192 20 6.07899 20 7.19691V8V16.8036C20 17.9215 20 18.4805 19.7822 18.9079C19.5905 19.2842 19.2837 19.5905 18.9074 19.7822C18.48 20 17.921 20 16.8031 20H7.19691C6.07899 20 5.5192 20 5.0918 19.7822C4.71547 19.5905 4.40973 19.2842 4.21799 18.9079C4 18.4801 4 17.9203 4 16.8002V8V7.2002C4 6.08009 4 5.51962 4.21799 5.0918C4.40973 4.71547 4.71547 4.40973 5.0918 4.21799C5.51962 4 6.08009 4 7.2002 4Z" fill="#B0B8C1"/>
<path d="M4 8H20M4 8V16.8002C4 17.9203 4 18.4801 4.21799 18.9079C4.40973 19.2842 4.71547 19.5905 5.0918 19.7822C5.5192 20 6.07899 20 7.19691 20H16.8031C17.921 20 18.48 20 18.9074 19.7822C19.2837 19.5905 19.5905 19.2842 19.7822 18.9079C20 18.4805 20 17.9215 20 16.8036V8M4 8V7.2002C4 6.08009 4 5.51962 4.21799 5.0918C4.40973 4.71547 4.71547 4.40973 5.0918 4.21799C5.51962 4 6.08009 4 7.2002 4H8M20 8V7.19691C20 6.07899 20 5.5192 19.7822 5.0918C19.5905 4.71547 19.2837 4.40973 18.9074 4.21799C18.4796 4 17.9203 4 16.8002 4H16M8 4H16M8 4V2M16 4V2M14.5 14H9.5" stroke="#B0B8C1" stroke-width="2" stroke-linecap="round" stroke-linejoin="round"/>
<path d="M14.5 14H9.5" stroke="white" stroke-width="2" stroke-linecap="round" stroke-linejoin="round"/>
<path d="M5 7C5 5.89543 5.89543 5 7 5H17C18.1046 5 19 5.89543 19 7C19 7.55228 18.5523 8 18 8H6C5.44772 8 5 7.55228 5 7Z" fill="white"/>
</svg>
