<svg width="36" height="36" viewBox="0 0 36 36" fill="none" xmlns="http://www.w3.org/2000/svg">
<path d="M15 15V12.2002C15 11.0801 15 10.5196 15.218 10.0918C15.4097 9.71547 15.7155 9.40973 16.0918 9.21799C16.5196 9 17.0801 9 18.2002 9H23.8002C24.9203 9 25.4801 9 25.9079 9.21799C26.2842 9.40973 26.5905 9.71547 26.7822 10.0918C27.0002 10.5196 27.0002 11.0797 27.0002 12.1998V17.7998C27.0002 18.9199 27.0002 19.48 26.7822 19.9078C26.5905 20.2841 26.2839 20.5905 25.9076 20.7822C25.4802 21 24.921 21 23.8031 21H21M15 15H12.2002C11.0801 15 10.5196 15 10.0918 15.218C9.71547 15.4097 9.40973 15.7155 9.21799 16.0918C9 16.5196 9 17.0801 9 18.2002V23.8002C9 24.9203 9 25.4801 9.21799 25.9079C9.40973 26.2842 9.71547 26.5905 10.0918 26.7822C10.5192 27 11.079 27 12.1969 27H17.8036C18.9215 27 19.4805 27 19.9079 26.7822C20.2842 26.5905 20.5905 26.2839 20.7822 25.9076C21 25.4802 21 24.921 21 23.8031V21M15 15H17.8002C18.9203 15 19.4801 15 19.9079 15.218C20.2842 15.4097 20.5905 15.7155 20.7822 16.0918C21 16.5192 21 17.079 21 18.1969L21 21" stroke="#4E5968" stroke-width="2" stroke-linecap="round" stroke-linejoin="round"/>
<rect width="36" height="36" rx="8" fill="#1C1A42" fill-opacity="0.04"/>
</svg>
