<svg width="25" height="24" viewBox="0 0 25 24" fill="none" xmlns="http://www.w3.org/2000/svg">
<path d="M3.5 12C3.5 16.9706 7.52944 21 12.5 21C17.4706 21 21.5 16.9706 21.5 12C21.5 7.02944 17.4706 3 12.5 3C7.52944 3 3.5 7.02944 3.5 12Z" fill="#8B939C"/>
<path d="M12.5 8.4502V12.4502M12.5 21C7.52944 21 3.5 16.9706 3.5 12C3.5 7.02944 7.52944 3 12.5 3C17.4706 3 21.5 7.02944 21.5 12C21.5 16.9706 17.4706 21 12.5 21ZM12.5498 15.4502V15.5502L12.4502 15.5498V15.4502H12.5498Z" stroke="#8B939C" stroke-width="2" stroke-linecap="round" stroke-linejoin="round"/>
<path d="M12.5 15.3814V15.48M12.5 8.47998V12.4236" stroke="white" stroke-width="2" stroke-linecap="round" stroke-linejoin="round"/>
</svg>
