<svg width="24" height="24" viewBox="0 0 24 24" fill="none" xmlns="http://www.w3.org/2000/svg">
<path d="M3.45984 15.5506C2.44073 17.3157 1.93132 18.1986 2.00744 18.9228C2.07384 19.5545 2.40537 20.1284 2.91924 20.5017C3.50817 20.9296 4.52664 20.9296 6.56347 20.9296H17.4365C19.4734 20.9296 20.4917 20.9296 21.0806 20.5017C21.5945 20.1284 21.9262 19.5545 21.9926 18.9228C22.0687 18.1986 21.5594 17.3157 20.5403 15.5506L15.1057 6.13759C14.0866 4.37246 13.5768 3.49004 12.9116 3.19385C12.3313 2.9355 11.6683 2.9355 11.0881 3.19385C10.4231 3.48992 9.91361 4.37234 8.89535 6.13601L3.45984 15.5506Z" fill="#FF8D70"/>
<path d="M12 15.9014V16M12 9V12.9437" stroke="white" stroke-width="2" stroke-linecap="round" stroke-linejoin="round"/>
</svg>
